<svg id="Capa_1" enable-background="new 0 0 512 512" height="512" viewBox="0 0 512 512" width="512" xmlns="http://www.w3.org/2000/svg"><g><path d="m434.821 471.081c-.513 0-1.032-.053-1.553-.163-31.504-6.632-49.45-26.318-56.259-35.414-30.413 8.92-70.415 13.293-121.01 13.293-4.143 0-7.5-3.358-7.5-7.5s3.357-7.5 7.5-7.5c103.813 0 148.979-19.124 168.064-42.132-7.943-2.501-16.136-5.943-24.438-10.439-7.044 4.904-16.378 7.382-27.862 7.382-9.062 0-18.564-1.99-28.865-4.887-9.355 5.86-38.594 21.303-86.899 21.303s-77.544-15.443-86.899-21.303c-10.301 2.897-19.804 4.887-28.865 4.887-11.484 0-20.819-2.479-27.862-7.382-8.303 4.497-16.5 7.94-24.443 10.441 8.361 10.164 20.777 18.34 37.662 24.844 24.261 9.344 57.92 14.96 100.041 16.692 4.139.17 7.356 3.663 7.186 7.802s-3.669 7.36-7.802 7.186c-36.041-1.482-65.962-5.705-89.979-12.75-6.771 9.067-24.728 28.83-56.307 35.478-4.052.854-8.031-1.741-8.884-5.794-.854-4.053 1.74-8.031 5.794-8.884 22.822-4.805 37.109-17.597 44.278-25.907-22.078-8.562-37.934-20.143-47.811-34.836-18.071 3.043-34.092 1.082-46.001-4.367-16.591-7.592-26.107-22.123-26.107-39.867 0-33.979 15.911-62.36 31.299-89.806 14.601-26.042 28.391-50.639 28.391-78.639 0-20.063-13.241-36.299-21.134-44.191-2.93-2.929-2.93-7.678-.001-10.607s7.678-2.931 10.606 0c9.534 9.533 25.528 29.329 25.528 54.798 0 31.918-15.407 59.399-30.307 85.975-15.11 26.952-29.382 52.409-29.382 82.47 0 15.115 9.435 22.605 17.35 26.227 15.587 7.133 41.642 6.381 69.8-7.894-3.218-6.239-3.802-12.388-3.802-16.027 0-4.142 3.357-7.5 7.5-7.5s7.5 3.358 7.5 7.5c0 2.501.391 5.568 1.782 8.544 5.905-3.825 11.848-8.263 17.751-13.363 1.048-.905 2.325-1.502 3.691-1.726 9.729-1.593 21.229-5.418 34.546-9.847 3.44-1.144 7.003-2.329 10.674-3.518v-3.72c0-4.142 3.357-7.5 7.5-7.5 3.84 0 7.006 2.886 7.447 6.607 18.136-5.253 38.274-9.62 59.261-9.62s41.125 4.368 59.261 9.621c.44-3.722 3.607-6.608 7.447-6.608 4.143 0 7.5 3.358 7.5 7.5v3.721c3.669 1.188 7.228 2.372 10.666 3.516 13.319 4.43 24.822 8.256 34.554 9.849 1.366.224 2.644.821 3.691 1.726 5.903 5.1 11.846 9.539 17.751 13.363 1.392-2.976 1.782-6.043 1.782-8.544 0-4.142 3.357-7.5 7.5-7.5s7.5 3.358 7.5 7.5c0 3.639-.584 9.788-3.802 16.027 7.69 3.899 15.224 6.789 22.429 8.785 3.938-9.033 5.031-18.212 5.031-26.714 0-37.5-25.228-98.208-61.348-147.632-2.444-3.344-1.715-8.037 1.629-10.48 3.345-2.443 8.036-1.715 10.48 1.63 38.423 52.572 64.238 115.458 64.238 156.482 0 10.877-1.668 20.752-5.036 29.68 12.907 1.492 24.11-.074 32.376-3.856 7.915-3.622 17.35-11.111 17.35-26.227 0-30.061-14.272-55.518-29.383-82.47-14.899-26.576-30.307-54.056-30.307-85.975 0-25.469 15.994-45.265 25.528-54.798 2.929-2.929 7.678-2.929 10.606 0s2.929 7.678-.001 10.607c-7.893 7.892-21.134 24.128-21.134 44.191 0 28 13.79 52.598 28.391 78.639 15.39 27.445 31.301 55.825 31.301 89.804 0 17.744-9.516 32.274-26.108 39.866-11.89 5.44-27.884 7.403-45.915 4.382-6.925 10.313-16.793 19.055-29.682 26.353-5.505 3.117-11.553 5.958-18.165 8.526 7.186 8.311 21.458 21.055 44.229 25.849 4.054.854 6.647 4.831 5.794 8.884-.744 3.533-3.861 5.957-7.332 5.957zm-245.189-93.653c13.357 5.771 35.648 12.596 66.368 12.596 30.94 0 53.174-6.807 66.451-12.57-19.924-6.283-42.324-13.029-66.451-13.029-24.093.001-46.465 6.728-66.368 13.003zm154.331-9.01c10.374 3.041 19.656 5.19 27.802 5.19 5.188 0 9.396-.617 12.805-1.659-4.562-3.161-9.123-6.65-13.669-10.492-10.413-1.951-22.263-5.892-34.761-10.048-23.936-7.96-51.064-16.983-80.14-16.983-29.079 0-56.21 9.023-80.147 16.985-12.496 4.156-24.342 8.096-34.752 10.046-4.546 3.842-9.108 7.332-13.67 10.492 3.409 1.042 7.617 1.659 12.805 1.659 8.146 0 17.429-2.15 27.804-5.191.14-.046.28-.087.422-.124 4.415-1.3 9.026-2.758 13.831-4.277 21.635-6.839 46.156-14.591 73.708-14.591s52.073 7.751 73.708 14.591c4.804 1.519 9.415 2.976 13.829 4.276.143.038.284.08.425.126zm-276.676-4.84c-3.979 0-7.295-3.128-7.485-7.145-.074-1.564-.112-3.168-.112-4.767 0-39.83 24.819-101.337 61.76-153.054 19.354-27.096 40.885-49.863 62.262-65.839 22.211-16.599 43.967-25.897 64.789-27.708v-56.646c0-4.142 3.357-7.5 7.5-7.5s7.5 3.358 7.5 7.5v56.654c25.378 2.234 62.465 16.493 105.963 66.696 2.713 3.13 2.374 7.867-.757 10.58-3.13 2.711-7.867 2.375-10.579-.757-31.832-36.738-65.114-58.273-94.627-61.443v32.091c0 4.142-3.357 7.5-7.5 7.5s-7.5-3.358-7.5-7.5v-32.096c-36.274 3.855-77.672 35.148-114.845 87.189-35.27 49.376-58.966 107.38-58.966 144.335 0 1.362.032 2.727.095 4.056.197 4.137-2.998 7.65-7.136 7.847-.122.004-.242.007-.362.007zm306.929-34.902c-4.143 0-7.5-3.358-7.5-7.5v-18.225c0-4.142 3.357-7.5 7.5-7.5s7.5 3.358 7.5 7.5v18.225c0 4.142-3.358 7.5-7.5 7.5zm-236.432 0c-4.143 0-7.5-3.358-7.5-7.5v-18.225c0-4.142 3.357-7.5 7.5-7.5s7.5 3.358 7.5 7.5v18.225c0 4.142-3.357 7.5-7.5 7.5z"/></g></svg>